<?xml version="1.0" standalone="no"?>
<svg xmlns="http://www.w3.org/2000/svg" id="fluxChart" width="399.9999" height="300"><rect width="100%" height="100%" fill="white"/><g transform="translate(50,20)"><g transform="translate(0,240)" fill="none" font-size="10" font-family="sans-serif" text-anchor="middle"><path class="domain" stroke="currentColor" d="M0.5,0.5H330.4999"/><g class="tick" opacity="1" transform="translate(27.999991666666666,0)"><line stroke="currentColor" y2="6"/><text fill="currentColor" y="9" dy="0.71em" style="font-size: 12px;">0.0</text></g><g class="tick" opacity="1" transform="translate(82.999975,0)"><line stroke="currentColor" y2="6"/><text fill="currentColor" y="9" dy="0.71em" style="font-size: 12px;">0.2</text></g><g class="tick" opacity="1" transform="translate(137.99995833333332,0)"><line stroke="currentColor" y2="6"/><text fill="currentColor" y="9" dy="0.71em" style="font-size: 12px;">0.4</text></g><g class="tick" opacity="1" transform="translate(192.99994166666664,0)"><line stroke="currentColor" y2="6"/><text fill="currentColor" y="9" dy="0.71em" style="font-size: 12px;">0.6</text></g><g class="tick" opacity="1" transform="translate(247.999925,0)"><line stroke="currentColor" y2="6"/><text fill="currentColor" y="9" dy="0.71em" style="font-size: 12px;">0.8</text></g><g class="tick" opacity="1" transform="translate(302.99990833333334,0)"><line stroke="currentColor" y2="6"/><text fill="currentColor" y="9" dy="0.71em" style="font-size: 12px;">1.0</text></g></g><g fill="none" font-size="10" font-family="sans-serif" text-anchor="middle"><path class="domain" stroke="currentColor" d="M0.5,0.5H330.4999"/><g class="tick" opacity="1" transform="translate(27.999991666666666,0)"><line stroke="currentColor" y2="-6"/><text fill="currentColor" y="-9" dy="0em" style="font-size: 12px;"/></g><g class="tick" opacity="1" transform="translate(82.999975,0)"><line stroke="currentColor" y2="-6"/><text fill="currentColor" y="-9" dy="0em" style="font-size: 12px;"/></g><g class="tick" opacity="1" transform="translate(137.99995833333332,0)"><line stroke="currentColor" y2="-6"/><text fill="currentColor" y="-9" dy="0em" style="font-size: 12px;"/></g><g class="tick" opacity="1" transform="translate(192.99994166666664,0)"><line stroke="currentColor" y2="-6"/><text fill="currentColor" y="-9" dy="0em" style="font-size: 12px;"/></g><g class="tick" opacity="1" transform="translate(247.999925,0)"><line stroke="currentColor" y2="-6"/><text fill="currentColor" y="-9" dy="0em" style="font-size: 12px;"/></g><g class="tick" opacity="1" transform="translate(302.99990833333334,0)"><line stroke="currentColor" y2="-6"/><text fill="currentColor" y="-9" dy="0em" style="font-size: 12px;"/></g></g><text class="axis-label" x="164.99995" y="275" text-anchor="middle" style="font-size: 14px;">Phase of rotation</text><g fill="none" font-size="10" font-family="sans-serif" text-anchor="end"><path class="domain" stroke="currentColor" d="M0.5,240.5V0.5"/><g class="tick" opacity="1" transform="translate(0,220.5)"><line stroke="currentColor" x2="-6"/><text fill="currentColor" x="-9" dy="0.32em" style="font-size: 12px;">0.0</text></g><g class="tick" opacity="1" transform="translate(0,170.5)"><line stroke="currentColor" x2="-6"/><text fill="currentColor" x="-9" dy="0.32em" style="font-size: 12px;">0.5</text></g><g class="tick" opacity="1" transform="translate(0,120.50000000000003)"><line stroke="currentColor" x2="-6"/><text fill="currentColor" x="-9" dy="0.32em" style="font-size: 12px;">1.0</text></g><g class="tick" opacity="1" transform="translate(0,70.50000000000001)"><line stroke="currentColor" x2="-6"/><text fill="currentColor" x="-9" dy="0.32em" style="font-size: 12px;">1.5</text></g><g class="tick" opacity="1" transform="translate(0,20.500000000000007)"><line stroke="currentColor" x2="-6"/><text fill="currentColor" x="-9" dy="0.32em" style="font-size: 12px;">2.0</text></g></g><g transform="translate(329.9999,0)" fill="none" font-size="10" font-family="sans-serif" text-anchor="start"><path class="domain" stroke="currentColor" d="M0.5,240.5V0.5"/><g class="tick" opacity="1" transform="translate(0,220.5)"><line stroke="currentColor" x2="6"/><text fill="currentColor" x="9" dy="0.32em" style="font-size: 12px;"/></g><g class="tick" opacity="1" transform="translate(0,170.5)"><line stroke="currentColor" x2="6"/><text fill="currentColor" x="9" dy="0.32em" style="font-size: 12px;"/></g><g class="tick" opacity="1" transform="translate(0,120.50000000000003)"><line stroke="currentColor" x2="6"/><text fill="currentColor" x="9" dy="0.32em" style="font-size: 12px;"/></g><g class="tick" opacity="1" transform="translate(0,70.50000000000001)"><line stroke="currentColor" x2="6"/><text fill="currentColor" x="9" dy="0.32em" style="font-size: 12px;"/></g><g class="tick" opacity="1" transform="translate(0,20.500000000000007)"><line stroke="currentColor" x2="6"/><text fill="currentColor" x="9" dy="0.32em" style="font-size: 12px;"/></g></g><text class="axis-label" transform="translate(-35,120) rotate(-90)" text-anchor="middle" style="font-size: 14px;">Relative flux</text><path fill="none" stroke="#FF0000" stroke-width="1.5" d="M27.499991666666666,130.19881681250845C28.416658055555555,130.71915885876018,29.333324444444447,131.2395009050119,30.249990833333335,131.43665487467604C31.166657222222224,131.63380884434017,32.08332361111111,131.61232417645257,32.99999,131.73238582917224C33.91665638888889,131.85244748189194,34.833322777777774,131.98644947674867,35.749989166666666,132.15702479099414C36.66665555555556,132.3276001052396,37.58332194444444,132.53446154722818,38.499988333333334,132.75583771464505C39.416654722222226,132.97721388206193,40.33332111111111,133.303784633992,41.2499875,133.48528179549544C42.16665388888889,133.66677895699888,43.08332027777777,133.74527211206697,43.99998666666666,133.84482068366577C44.91665305555555,133.94436925526458,45.83331944444444,134.08257322508825,46.749985833333334,134.08257322508825C47.66665222222222,134.08257322508825,48.58331861111111,133.88718175056374,49.499984999999995,133.88718175056374C50.41665138888888,133.88718175056374,51.33331777777777,133.89863509252493,52.24998416666666,133.92154177644733C53.16665055555555,133.94444846036973,54.08331694444444,134.04482242771957,54.99998333333333,134.15432557739337C55.916649722222225,134.26382872706716,56.83331611111111,134.44636222303734,57.7499825,134.5785606744901C58.66664888888889,134.71075912594284,59.58331527777778,134.8041656815781,60.49998166666667,134.94751628610985C61.416648055555555,135.09086689064156,62.33331444444445,135.4386643016805,63.24998083333333,135.4386643016805C64.16664722222222,135.4386643016805,65.08331361111111,135.43402753937923,65.99998,135.42475401477668C66.91664638888888,135.41548049017413,67.83331277777778,135.36038659838707,68.74997916666666,135.23165176560786C69.66664555555555,135.10291693282866,70.58331194444445,134.00174818615554,71.49997833333333,133.4180246133088C72.41664472222222,132.83430104046207,73.33331111111112,132.2823333959113,74.2499775,131.72931032852748C75.16664388888888,131.17628726114364,76.08331027777778,130.67330893632172,76.99997666666667,130.09988620900575C77.91664305555555,129.52646348168977,78.83330944444444,128.93662076103843,79.74997583333332,128.28877396463162C80.66664222222222,127.64092716822479,81.58330861111111,127.04555054861987,82.499975,126.21280543056479C83.41664138888889,125.3800603125097,84.33330777777779,124.30191008087736,85.24997416666668,123.29230325630112C86.16664055555556,122.2826964317249,87.08330694444443,121.22211078308038,87.99997333333332,120.15516448310737C88.9166397222222,119.08821818313436,89.8333061111111,117.94188975334576,90.74997249999998,116.89062545646306C91.66663888888887,115.83936115958035,92.58330527777777,114.82419888042223,93.49997166666665,113.84757870181114C94.41663805555554,112.87095852320006,95.33330444444444,111.91367183152353,96.24997083333332,111.03090438479651C97.1666372222222,110.1481369380695,98.0833036111111,109.32190247311702,98.99996999999999,108.55097402144906C99.91663638888888,107.78004556978111,100.83330277777777,107.0614698023591,101.74996916666666,106.40533367478879C102.66663555555554,105.7491975472185,103.58330194444443,105.15116709369354,104.49996833333331,104.61415725602727C105.41663472222221,104.077147418361,106.3333011111111,103.59938656576672,107.2499675,103.18327464879113C108.16663388888888,102.76716273181553,109.08330027777778,102.41142257077405,109.99996666666667,102.11748575417371C110.91663305555555,101.82354893757338,111.83329944444444,101.58898026308468,112.74996583333332,101.41965374918914C113.66663222222222,101.2503272352936,114.5832986111111,101.10152667080047,115.499965,101.10152667080047C116.41663138888889,101.10152667080047,117.33329777777779,101.11040643998768,118.24996416666667,101.12816597836212C119.16663055555556,101.14592551673655,120.08329694444446,101.33766342691005,120.99996333333334,101.53958765934908C121.91662972222221,101.7415118917881,122.8332961111111,102.00722382494375,123.74996249999997,102.33971137299623C124.66662888888887,102.67219892104872,125.58329527777775,103.07758565640692,126.49996166666665,103.53451294766401C127.41662805555555,103.9914402389211,128.33329444444445,104.50233322053421,129.24996083333335,105.08127512053878C130.16662722222222,105.66021702054334,131.08329361111112,106.32022842012323,131.99996,107.00816434769139C132.9166263888889,107.69610027525957,133.83329277777776,108.42520650581497,134.74995916666666,109.20889068594778C135.66662555555556,109.99257486608059,136.58329194444443,110.96774959768224,137.49995833333332,111.71026942848829C138.4166247222222,112.45278925929432,139.3332911111111,113.07911414523093,140.24995749999997,113.66400967078404C141.16662388888886,114.24890519633716,142.08329027777776,114.68679263491195,142.99995666666666,115.21964258180695C143.91662305555556,115.75249252870194,144.83328944444443,116.33273246964,145.74995583333333,116.861109352154C146.66662222222223,117.389486234668,147.5832886111111,117.88150687588873,148.499955,118.38990387689095C149.4166213888889,118.89830087789318,150.33328777777777,119.38080579765239,151.24995416666667,119.9114913581673C152.16662055555554,120.44217691868221,153.08328694444444,120.98030961536612,153.9999533333333,121.5740172399804C154.9166197222222,122.16772486459469,155.8332861111111,122.78348679559808,156.7499525,123.47373710585299C157.66661888888888,124.16398741610789,158.58328527777778,124.94612646747697,159.49995166666665,125.71551910150981C160.41661805555555,126.48491173554267,161.33328444444442,127.55619357706345,162.24995083333332,128.0900929100501C163.16661722222221,128.62399224303672,164.08328361111109,128.59343188921238,164.99994999999998,128.9189150994296C165.91661638888885,129.24439830964678,166.83328277777775,129.76970637216888,167.74994916666662,130.0429921713533C168.66661555555552,130.3162779705377,169.58328194444442,130.40752859314728,170.49994833333332,130.55862989453604C171.41661472222222,130.70973119592477,172.3332811111111,130.79806623894797,173.2499475,130.9495999796858C174.16661388888886,131.1011337204236,175.08328027777776,131.4678323389629,175.99994666666663,131.4678323389629C176.91661305555553,131.4678323389629,177.83327944444443,130.86450272825374,178.74994583333333,130.60320005300875C179.66661222222223,130.34189737776376,180.5832786111111,130.12975157236,181.499945,129.90001628749295C182.41661138888887,129.67028100262593,183.33327777777777,129.44447599213785,184.24994416666664,129.22478834380655C185.16661055555554,129.00510069547525,186.08327694444444,128.77349713822701,186.99994333333333,128.58189039750508C187.9166097222222,128.39028365678314,188.8332761111111,128.22155965019738,189.74994249999997,128.07514789947498C190.66660888888887,127.92873614875259,191.58327527777774,127.80552369875328,192.49994166666664,127.70341989317076C193.41660805555554,127.60131608758824,194.3332744444444,127.53196638009778,195.2499408333333,127.46252506597992C196.1666072222222,127.39308375186205,197.08327361111108,127.3262161773246,197.99993999999998,127.28677200846357C198.91660638888888,127.24732783960255,199.83327277777778,127.22586005281377,200.74993916666668,127.22586005281377C201.66660555555555,127.22586005281377,202.58327194444445,127.23403453269003,203.49993833333332,127.25038349244257C204.41660472222222,127.2667324521951,205.3332711111111,127.38941050261303,206.2499375,127.44093977251003C207.16660388888886,127.49246904240704,208.08327027777776,127.49560613497356,208.99993666666663,127.55955911182461C209.91660305555553,127.62351208867568,210.83326944444443,127.7190727201216,211.74993583333332,127.82465763361641C212.66660222222222,127.93024254711122,213.58326861111112,128.08164932761463,214.49993500000002,128.19306859279345C215.4166013888889,128.30448785797228,216.33326777777776,128.49317322468931,217.24993416666663,128.49317322468931C218.16660055555553,128.49317322468931,219.0832669444444,128.2761447452998,219.9999333333333,127.85573190917653C220.9165997222222,127.43531907305324,221.8332661111111,126.65709768401459,222.7499325,125.97069620794957C223.66659888888887,125.28429473188457,224.58326527777777,124.4300748521518,225.49993166666664,123.73732305278646C226.41659805555554,123.04457125342113,227.3332644444444,122.44728423945891,228.2499308333333,121.81418541175755C229.1665972222222,121.18108658405617,230.0832636111111,120.73856530833056,230.99993,119.93873008657826C231.91659638888888,119.13889486482597,232.83326277777778,117.94948841602574,233.74992916666665,117.0151740812438C234.66659555555552,116.08085974646185,235.58326194444442,115.2452556958485,236.4999283333333,114.33284407788659C237.4165947222222,113.42043245992467,238.33326111111109,112.40898199242105,239.24992749999998,111.5407043734723C240.16659388888888,110.67242675452354,241.08326027777778,109.86613909932309,241.99992666666668,109.1231783641941C242.91659305555555,108.38021762906513,243.83325944444445,107.69992438162107,244.74992583333332,107.08293996269836C245.66659222222222,106.46595554377564,246.5832586111111,105.92365770749103,247.499925,105.42127185065779C248.41659138888886,104.91888599382456,249.33325777777776,104.47210941002871,250.24992416666663,104.06862482169893C251.1665905555555,103.66514023336916,252.0832569444444,103.32154191623246,252.99992333333327,103.00036432067918C253.91658972222217,102.6791867251259,254.8332561111111,102.36265741419051,255.7499225,102.14155924837927C256.6665888888889,101.92046108256804,257.58325527777777,101.73415890281966,258.49992166666664,101.67377532581176C259.4165880555555,101.61339174880386,260.33325444444444,101.58319996029991,261.2499208333333,101.58319996029991C262.1665872222222,101.58319996029991,263.0832536111111,101.7260111126402,263.99992,101.88641107501711C264.91658638888885,102.04681103739402,265.8332527777778,102.26665450110468,266.74991916666664,102.54559973456138C267.6665855555555,102.82454496801807,268.58325194444444,103.16182642327895,269.4999183333333,103.56008247575727C270.4165847222222,103.95833852823559,271.3332511111111,104.41582008439548,272.2499175,104.93513604943126C273.16658388888885,105.45445201446705,274.0832502777778,106.03780748000145,274.99991666666665,106.67597826597196C275.9165830555555,107.31414905194248,276.83324944444445,108.01084805488105,277.7499158333333,108.76416076525435C278.6665822222222,109.51747347562764,279.5832486111111,110.3628149354815,280.499915,111.19585452821174C281.41658138888886,112.02889412094198,282.3332477777778,112.86616958990302,283.24991416666666,113.76239832163579C284.1665805555555,114.65862705336855,285.08324694444445,115.61403631650093,285.9999133333333,116.57322691860831C286.9165797222222,117.5324175207157,287.8332461111111,118.51750117231012,288.7499125,119.5175419342801C289.66657888888886,120.51758269625009,290.5832452777778,121.52561871097652,291.49991166666666,122.57347149042818C292.41657805555553,123.62132426987984,293.33324444444446,124.92662915695615,294.24991083333333,125.80465861099009C295.1665772222222,126.68268806502402,296.08324361111113,127.30644711336402,296.99991,127.84164821463176C297.91657638888887,128.3768493158995,298.8332427777778,128.62300378561713,299.74990916666667,129.0158652185966C300.66657555555554,129.40872665157605,301.58324194444447,129.80377173204224,302.49990833333334,130.19881681250845"/></g></svg>
